<svg xmlns="http://www.w3.org/2000/svg" viewBox="0 0 1273.4 558.19"><path d="M122.72 557.642c-41.137-8.244-86.218-13.3-122.72-34.213 8.009-31.374 34.458-69.289 38.541-90.738 22.183-48.522 47.554-98.471 41.66-153.64 1.44-49.77-.78-99.505-1.82-149.26 12.809 7.93-7.21-47.836.844-67.304C73.635 34.31 106.027 8.465 127.388.035c36.37.21 72.774-.605 109.12.884-11.886 73.035 81.026 27.623 123.54 38.987 40.083-.798 82.768-2.207 117.02 21.15 56.806 33.111 125.54 15.864 187.87 18.736 44.298-2.176 92.744-1.936 134.31-2.747 72.74 1.626 145.97-1.031 219.56-.259 77.28-1.68 154.41-4.692 231.54-3.036 34.257 27.277 23.69 80.167 10.685 119.3-2.325 42.116-38.868 58.908-71.436 33.981-72.757-18.755-148.61-8.583-222.83-10.96-22.888-1.122-42.53 1.848-71.18-.103-26.76 8.331-47.593-9.084-57.987.529-15.354-6.509-26.914 5.487-50.165 3.051-2.782-14.789-18.906 7.656-45.89-.677-34.624-.235-72.61 1.102-100.95 1.126-35.772-.2-78.451-.166-117.44.554-65.37 1.06-131.88.115-196.52 3.696-26.453 3.967-93.678-18.157-76.875 31.814 1.644 35.294 36.804 83.604 33.61 108.14-9.31-1.971 42.129 44.226 15.222 57.959 28.35-.531 30.406 49.923 49 69.839 25.643 34.186-45.605 36.478-66.5 48.592-51.246 16.21-105.34 19.029-158.38 17.053zm35.88-5.023c61.84-2.39 124.4-13.89 180.55-41.03-12.066-40.26-46.117-74.59-66.423-112.59-22.924-34.17-43.367-70.57-66.481-105.09-8.961-5.85-5.5-43.987-38.721-27.842-18.242 2.006-93.964-2.643-36.852-3.173 24.933-3.8 76.909 13.837 57.739-31.017-7.313-63.765-2.27-128.64-7.543-192.33-36.184 3.755-108.65-20.773-90.576 41.693-2.112 49.688 2.103 103.57-1.284 150.76-.665 42.497 7.714 88.305-9.54 128.16-13.125 46.412-38.964 84.962-54.961 131.09-27.344 31.321 5.95 34.824 21.09 35.785 30.349 20.744 75.132 19.877 112.22 26.867l.78-1.28zm-10.765-5.787c2.711-10.452 14.968 4.877 0 0zm21.552-.655c-1.957-7.917 12.671 1.187 0 0zm-39.037-.869c-6.053-7.909 11.552 3.023 0 0zm59.25-1.756c10.57-6.215 14.803 5.316 0 0zm-83.444-.464c.388-12.451 14.371 7.411 0 0zm109.08-2.59c7.741-6.137 12.117 5.027 0 0zm-126.64-1.067c4.885-5.312 9.76 5.813 0 0zm147.75-1.684c1.97-10.604 16.237 3.096 0 0zm-166.5-1.245c-1.627-12.173 12.58 6.938 0 0zm100.11-2.005c.501-13.719 14.13 5.707 0 0zm-39.755-1.081c.574-10.543 12.388 4.423 0 0zm19.931.233c.575-21.58 12.221 9.015 0 0zm-39.788-1.341c-6.05-14.084 18.004 3.597 0 0zm79.806-.22c3.897-11.842 15.929 4.537 0 0zm66.694-.34c5.218-5.417 4.477 4.725 0 0zm-164.25-4.05c3.976-11.388 6.573 6.064 0 0zm122.61-1.138c9.247-5.54 3.56 5.153 0 0zm58.386.463c9.316-10.408 11.565 5.194 0 0zm-39-3.41c7.37-7.81 10.604 5.163 0 0zm-158-1.116c3.832-5.38 3.832 5.382 0 0zm218-2c6.761-9.487 6.946 5.157 0 0zm-233.42-1.143c-.35-7.145 5.511 5.793 0 0zm92.667.981c-5.112-10.23 13.736-.267 0 0zm-20-.981c-3.317-9.78 13.174.654 0 0zm120.57-.575c5.312-2.312 3.124 1.763 0 0zm-82.485-1.282c7.419-5.519 7.419 5.52 0 0zm-59.333-.454c-.751-10.505 13.382 4.304 0 0zm77-.49c10.57-6.216 14.803 5.315 0 0zm-143.33-.983c1.46-8.915 5.97 5.494 0 0zm224.74-.724c5.498-10.213 12.554 1.611 0 0zm-174.74-.515c-1.65-6.213 7.458 2.546 0 0zm117.33-.427c6.927-9.788 9.336 3.941 0 0zm-17.729-.51c3.96-2.102.935 2.253 0 0zm116.26-.346c9.39-10.624 12.765.175 0 0zM81.04 510.91c-.314-9.902 7.742 6.179 0 0zm151.05.08c4.213-10.654 13.607 2.177 0 0zm-167.5-4.493c5.182-5.454 5.182 5.455 0 0zm225.22.327c9.855-6.357 4.263 4.561 0 0zm-39.54-1.224c6.119-8.046 7.2 6.257 0 0zm-76.556-2.501c-.826-8.244 12.67 2.132 0 0zm-124.12-2.102c4.83-7.337 6.134 7.46 0 0zm85 .5c7.689-6.39 10.104 6.124 0 0zm20-.063c5.801-5.446 11.556 5.97 0 0zm36.912.282c1.112-10.323 18.406 3.072 0 0zm-75.589-1.32c4.193-10.246 11.703 7.08 0 0zm151.69.611c-1.14-9.63 13.447 3.595 0 0zm40.023-.48c.884-6.895 8.852 2.772 0 0zm-94.28-1.791c1.634-11.268 9.091 3.67 0 0zm-113.75-.55c2.59-8.575 10.162 4.839 0 0zm-15.33-3.617c2.427-6.894 6.869 5.318 0 0zm145.55-.762c11.194-6.338 5.528 4.558 0 0zm55.78-.214c4.342-9.035 9.532 7.067 0 0zm-217.25-1.857c1.019-10.688 10.684 5.098 0 0zm177.25-1.731c7.454-6.441 9.847 4.594 0 0zm55.694-1.659c-.477-5.877 5.07 2.176 0 0zm-161.57-3.25c-.71-8.534 10.243 2.163 0 0zm17.878-.61c6.526-5.5 6.526 5.5 0 0zm14 .098c22.666-10.038 41.777 2.006 6.825 1.025l-4.196-.024-2.629-1.001zm92-.098c5.877-6.526 10.863 4.981 0 0zm-143-.54c.151-9.919 14.66 4.505 0 0zm-17-3.407c4.1-7.5 8.672 5.898 0 0zm107-.059c10.476-9.832 7.718 6.38 0 0zm69.244-1.75c18.953-12.093 12.3 3.748 0 0zm-192.24-1.143c5.934-7.462 9.42 5.845 0 0zm139.64-.107c16.06-8.2 88.213-27.258 33.726-8.006-10.823 2.513-22.862 10.988-33.726 8.006zm-153.64-3.5c3.668-9.001 9.567 7.88 0 0zm67.625-5.536c44.116-2.917 90.138-6.218 131.63-23.783-23.055 16.248-67.862 22.127-100.5 25.188-10.227-.633-21.164 1.488-31.125-1.405zm-17.044-.333c-41.059-3.237 12.883-9.095 3.648.845l-3.648-.845zm-34.081-4.854c-46.561-15.87 33.021-.89 0 0zm45.263-8.224c-19.89 1.324-91.51-21.519-36.371-9.516 34.643 16.118 136.05-2.685 129.57 1.464-30.229 8.406-61.97 9.382-93.196 8.052zm109.24-13.053c3.903-3.653 3.903 3.654 0 0zm5.599-2.396c26.425-12.503 10.73 3.611 0 0zm-127.36-3.31c-22.542-8.247-57.683-11.252-10.637-9.905 49.01-.74 102.33 1.652 148.58-4.616-38.94 17.686-75.027 7.003-116.32 9.182-13.627-1.203-29.591 2.351-6.876 4.912l-5.869.842-8.88-.415zm77-1.987c7.745-1.556 1.487 1.608 0 0zm-119.25-18.24c33.182-5.404 75.986-4.67 109.92-3.074 22.706-5.841 100.76.82 35.65 1.227-47.33 2.709-96.343 1.46-144.16 3.484l-1.41-1.637zm8.192-16.818c51.583-4.824 104.38-1.5 156.34-5.223-27.457 10.04-84.51 2.236-122.64 6.312-10.4-1.338-24.4 2.95-33.7-1.089zm2.471-14.45c40.744-7.474 92.546-3.03 137.5-4.244-22.858 5.599-82.924 2.375-119.32 4.718-6.062-.07-12.145.191-18.187-.474zm143.43-3.175c-1.638-7.355 6.174 4.697 0 0zm3.174-1.22c3.96-2.102.934 2.252 0 0zm-141.26-11.79c26.389-6.074 107.98-3.239 96.858-2.617-29.446 4.254-65.8 3.443-96.858 2.616zm106-2.117c27.386-8.05 49.247 6.88 0 0zm-101.79-12.64c39.658-4.162 83.22-5.171 122.29-2.923-39.633 3.734-82.26 3.315-122.29 2.923zm3.788-15.117c20.956-5.203 88.17-4.628 89.473-.857-29.72.083-59.974 2.621-89.473.857zm99.655-2.191c14.882-7.103 19.2 5.584 0 0zm-96.655-12.854c28.213-4.908 82.364-4.23 99.462-.918-33.048.31-66.872 2.833-99.462.918zm4.001-13.524c18.701-6.91 94.314 1.953 86.392-1.597-28.83-.287-57.579 2.683-86.392 1.597zm-3.582-15.195c15.692-4.214 91.993-5.833 85.154-1.274-28.37.694-56.786 1.796-85.154 1.274zm-.915-14.965c15.304-8.833 27.74 5.42 0 0zm23.727.198c-10.234-5.04 15.86.225 0 0zm10.79-.038c18.311-7.457 80.663-1.065 25.313.616-8.388-2.707-16.858 1.648-25.314-.616zm-36.77-30.417c22.42-3.192 117.34-3.077 47.971 1.205-15.965-.447-32.115 1.078-47.972-1.205zm2.303-13.285c10.508-6.973 109.81-3.674 42.654-.364-13.935-1.331-29.793 1.995-42.654.364zm6.196-16.257c-33.714-6.959 56.937-2.473 0 0zm42-1.004c-13.33-6.85 17.03-.345 0 0zm12.75-1.204c2.046-8.86 10.534 5.043 0 0zm-28.5-.917c3.063-5.485 12.214 4.786 0 0zm-22.463-13.024c-26.846-6.386 57.203-1.162 4.475.697l-4.475-.697zm36.463-1.632c4.475-4.732 5.17 5.465 0 0zm16-.427c12.837-11.338 5.705 7.583 0 0zm-62.215-13.367c10.765-12.316 33.37 8.149 0 0zm30.084-.714c-1.916-6.58 10.671 1.75 0 0zm15.631.08c3.564-12.786 11.248 4.124 0 0zm16.981-.03c7.264-12.868 7.578 6.866 0 0zm-62.79-15.74c12.086-8.294 27.64 3.11 0 0zm30.652-.751c-3.911-8.09 11.163 2.413 0 0zm16.32.835c-4.338-12.21 10.012 3.082 0 0zm15.348-.584c4.596-10.374 12.104 5.433 0 0zm-63.959-14.7c1.993-8.564 11.177 3.59 0 0zm15.198.172c-8.017-6.836 13.025.874 0 0zm16.306-.135c1.715-11.23 11.107 4.055 0 0zm33.2-.34c3.385-11.45 14.467 6.47 0 0zm-16.255-.75c3.721-3.755 5.466 3.66 0 0zm-49.069-14.112c3.011-8.414 8.341 4.814 0 0zm15.264.33c-5.83-7.61 13.104 2.12 0 0zm17.305-.136c1.488-11.558 9.871 4.919 0 0zm17-1.082c2.555-3.588 2.555 3.587 0 0zm-49.457-13.931c.709-7.644 9.236 5.181 0 0zm31.437-1.107c-.84-16.722 13.733 8.114 0 0zm-15.98.038c5.243-3.685 5.243 3.684 0 0zm1.431-14.112c1.931-6.846 5.267 4.118 0 0zm16.07.111c7.067-4.1-.924-.83 0 0zm-16.5-15.427c5.17-5.465 4.474 4.732 0 0zm-104.81 429.74c-4.384-1.432-.434 1.925 0 0zm316.24-41.42c-4.194-3.345-1.987 4.87 0 0zm-3.436-4.895c-2.555-3.587-2.555 3.588 0 0zm-31-52c-3.903-3.653-3.903 3.653 0 0zm-25.193-50.225c10.867-15.578-10.6 7.45 0 0zm-3.517-10.775c-5.448-9.268-.05 9.614 0 0zm-9.29-12.04c-2.88-1.905-2.334 3.435 0 0zm-3-8.514c-4.475-4.732-5.17 5.465 0 0zm4.3-6.086c-6.373-4.8-.25 8.553 0 0zm-178.94 1.16c-.628-5.51-3.484 5.422 0 0zm177.84-4.7c-6.264-2.376.131 4.507 0 0zm11.8-.86c-3.106-3.626-1.897 5.036 0 0zm-19.638-4.44c-2.378-5.4-3.505 5.292 0 0zm8.222-2.5c4.34-5.033-6.965 4.588 0 0zm-15.583-2c2.286-3.948-7.308 3.347 0 0zm-13-.378c-2.732-5.41-4.412 1.444 0 0zm20.332-3.638c3.24-15.643-10.52 3.74 0 0zm-22.53-11.11c-13.923-16.861-5.082 13.012 0 0zm4.196-1.93c-2.88-1.906-2.334 3.434 0 0zm27-.36c-1.171-8.242-10.817.502 0 0zm-15-2.582c-3.903-3.653-3.903 3.653 0 0zm-20.37-3.25c-5.068-10.696-7.112 6.646 0 0zm4.37-2.25c-2.48-5.269-2.48 5.27 0 0zm4-9c-6.48-4.92 2.07 5.175 0 0zm-8.639-1c4.84-17.102-12.005 5.805 0 0zm5.639-2.559c-2.88-1.905-2.334 3.435 0 0zm-1.412-6.686c-4.724-.262 3.115 7.296 0 0zm-15.1-2.005c-.538-14.772-16.102 6.933 0 0zm31.512.25c-2.479-5.269-2.479 5.27 0 0zm-16-6.5c-2.466-3.562-1.21 3.656 0 0zm-10.5-5c-3.588-3.807-1.242 3.943 0 0zm.75-3.416c-2.415-4.661-3.241 4.369 0 0zm6.459-.334c5.752-12.513-11.425 2.63 0 0zm-17.708-3.75c-6.526-5.5-6.526 5.5 0 0zm-2.305-6.98c-6.316-8.436-1.028 10.835 0 0zm-7.945-.15c9.34-10.133-15.657 3.298 0 0zm2.25-10.87c5.63-8.727-9.666 3.777 0 0zm21 .5c-4.912-3.78-7.002 3.703 0 0zm-12-9.222c-6.5-2.929-2.636 8.49 0 0zm-14.812 1.539c-4.384-1.433-.434 1.925 0 0zm9.71-.695c-.591-6.453-8.748 3.307 0 0zm22.206-4.216c-6.2-17.568-33.676-11.404-2.722 1.524l2.722-1.524zm984.9-1.465c-2.88-1.906-2.334 3.435 0 0zm-979-3.441c-2.378-5.4-3.506 5.292 0 0zm987 .622c-2.743-7.32-4.479 3.109 0 0zm11-3.684c-6.388-5.136-5.233 4.805 0 0zm5.546-2.358c-6.643-7.978-3.697 10.617 0 0zm8.027.92c1.348-6.193-6.509 7.497 0 0zm-1052.6.94c-2.88-1.905-2.334 3.436 0 0zm8.588-6.685c-5.212.026 3.267 7.163 0 0zm1040.6 3.062c-4.383-1.433-.433 1.925 0 0zm-857.19-1.317c-3.13-2.998-5.203 3.942 0 0zm838.94-.197c-9.799-21.163-58.697-5.837-10.983-1.549 7.607-10.364 6.41 7.653 10.983 1.549zm-981.44-.803c-1.241-3.943-3.588 3.807 0 0zm137.5-1.584c-3.375-4.458-3.547 5.326 0 0zm264.82-.765c-5.283-7.22-6.02 7.99 0 0zm29.824-2.337c-4.848 1.625 2.558 8.764 0 0zm-468.65 2.186c-5.48-5.873-2.45 4.89 0 0zm46.082.5c2.31-6.785-8.888 3.951 0 0zm68.28-.5c-2.377-5.4-3.505 5.292 0 0zm-41.362-.5c-3.903-3.653-3.903 3.653 0 0zm595.84-1.44c-2.192-10.221-5.385 7.333 0 0zm-611.86-.49c-13.347-1.892-4.837-.815 0 0zm-60.948-2.17c-3.47-1.725-1.65 4.668 0 0zm9.066-2.883c2.395-46.822-2.757-95.44 1.352-141.88-19.198-22.444 6.19 62.676-8.66 77.304 6.164 11.691 4.925 44.585-3.258 54.973 13.344-13.583 3.563 23.953 10.566 9.608zm16.508 3.304c-2.69-6.697-2.956 6.103 0 0zm66.426.696c-2.555-3.587-2.555 3.588 0 0zm147.78-.11c40.413-2.09 78.79-.31 119.58-2.531.53-15.352 21.553 3.476 21.96-11.922 36.501 1.15 54.203 21.359 98.4 11.254 25.108-4.689 74.72 7.436 87.818-5.3-39.965-7.28-82.068 0-120.85-13.34-37.003-2.864-71.483-4.674-90.6-10.252-7.8 5.53 21.94 9.331-11.23 6.382-18.784 3.543-72.758-13.303-27.046-10.882 37.81 2.647 77.39 1.495 113.69 4.696 30.797-.025 60.483 3.779 91.241 4.046 18.695-4.187 97.622 1.78 35.675 2.908-26.629 2.571-66.772-4.826-85.5 2.775 36.4 2.672 75.556 10.161 108.89 6.285 20.818-5.97 15.374 20.007 42.723 10.375 33.396-1.232 78.43 1.49 105.89-2.303 60.235.344 121.42 1.095 181.85-1.557-31.348-17.557 51.96.754 65.243 1.13 25.413 3.694 76.074 1.598 28.337-9.831-42.542 1.68-84.652-4.057-125.86-12.938-53 .83 5.196 11.85 6.797 13.734-37.962.064-70.416-16.615-109.66-10.077-31.426 12.098-41.128-2.45-74.685-3.633 62.406-2.559 125.27 1.306 187.36-5.655 35.688 15.364 72.016 8.7 108.44 12.594 20.572 2.292 61.573-14.255 14.165-9.236-29.99 4.498-60.817-4.19-92.619-6.248-44.515-8.184-90.485 2.267-135.8-1.619-82.409.081-164.8 5.28-247.24-.078-59.828.865-120.1 2.539-179.69-2.06 35.39-7.505 81.67-1.095 120.06-1.382 7.007 2.346 60.1-2.54 32.877-8.857-33.609.24-70.274 1.709-101.73-1.374-32.62.703-74.626.77-110.71-2.91-22.45 1.043-70.64-15.045-74.56-.542 33.177 1.07 66.807 10.877 98.453 9.051-9.376 14.501-55.436-7.245-77.857-2.373-42.585-.98-83.964-21.252-126.32-12.941 12.181 8.183 89.624 7.077 56.505 14.079-35.36-3.369-79.397-18.851-63.54 30.9-44.432 1.009 44.607 10.575 56.711 6.539 20.657-5.557 104.58 2.404 39.268 1.006-20.232 6.503-83.753-6.493-76.167 10.491 27.46 4.36 57.543-.334 85.79 2.209 7.966-.632 15.963-.522 23.946-.613zm9.715-9.895c-44.626-5.49 91.285-2.823 55.466-6.15-17.788 3.097-37.026 8.857-55.466 6.15zm196.75-.738c-18.33-6.59 29.316 3.687 0 0zm14.5.075c5.507-1.623 1 1.75 0 0zm-40.75-1.337c5.466-3.661 3.72 3.755 0 0zm268.5-1c-20.704-8.916 39.737 1.303 0 0zm19.322-.34c24.716-11.108 49.444 2.359 79.954-5.935 22.014-4.351 59.12 2.36 14.744 2.651-31.415 3.955-63.806 4.747-94.698 3.284zm-397.57-1.384c-5.534-5.57 43.21 3.163 5.38.298l-5.38-.298zm27.14-.097c13.301-7.499 31.39 1.075 0 0zm338.61-.68c4.73-5.72 3.273 5.159 0 0zm-305.25-.216c-11.075-7.451 19.18 3.779 0 0zm241.5.01c-7.023-6.335 13.882 1.148 0 0zm20.443-.933c1.613-6.61 10.99 4.679 0 0zm-272.19-1.36c6.577-3.702 6.577 3.701 0 0zm468.5-1.393c3.767-3.236 5.513 1.737 0 0zm-643.25-5.187c-42.335-5.15 63.881-4.866 80.721-7.394 65.396 4.335-25.512 4.87-45.265 5.042-11.954-.817-23.587 2.35-35.456 2.352zm-28.753-1.335c-20.426-1.842-64.822-9.056-17-6.085-4.305-2.917 32.097 5.079 17 6.085zm437-.21c24.585-6.371 49.063 1.006 11.915 1.193l-8.21-.271-3.705-.922zm37.501.126c22.043-10.697 93.762-1.158 32-1.158-10.657-.288-21.494 1.237-32 1.158zm-344.77-11.6c-54.408-6.247-110.19 2.931-163.97-5.784 10.966-3.864 43.908 3.297 65.377-1.482 28.01 5.173 88.172-3.81 98.597 7.266zm53.041-4.96c-44.71-7.708 45.651-2.234 0 0zm693.5 42.97c3.109-7.385-6.659 2.35 0 0zm-1036.8-2.01c3.447-13.208-10.055 2.886 0 0zm77.04-1.461c-3.188-3.327-.366 4.925 0 0zm298.54.069c-7.92-7.585.21 8.19 0 0zm212.02-1.565c3.142-16.314-10.079 9.3 0 0zm337.96.815c1.211-4.413-12.713 7.708 0 0zm-886.23-2.5c-4.674-5.874-2.987 4.344 0 0zm17.004-.5c-8.717-5.987-6.164 6.452 0 0zm17.705.402c-1.769-11.385-17.132 3.604 0 0zm32.193-.972c-19.616-12.087-44.523 7.395-4.514.5l4.514-.5zm847.09-.393c-14.327-7.68-17.696 6.356 0 0zm15.757.713c-5.465-3.661-3.72 3.755 0 0zm86.67-7.444c1.772-36.497-12.054 26.895 0 0zm-1047.4 5.631c-3.362-4.45-3.634 5.246 0 0zm14.756.856c-5.54-1.733-3.542 3.261 0 0zm897.47-2.602c-4.048-1.916-2.393 3.414 0 0zM690.144 196c-2.466-3.563-1.21 3.656 0 0zm-425.25-3.25c50.076 2.806.778-13.19-17.252-5.75 4.68 2.505 17.377 3.763 17.252 5.75zm272.38-13.3c-16.532-7.6.546 9.136 0 0zm-448.44 1.85c-4.383-1.433-.433 1.925 0 0zm140.81-.317c13.48-15.798-12.852-4.09 0 0zm78-1.45c-10.658-8.434-8.39 6.094 0 0zm-59.614.635c39.166 2.662 4.492-11.077-9.386-5.518 5.663 1.059.545 7.32 9.386 5.518zm48.745-.916c-20.408-16.553-45.72 9.455 0 0zm958.87-4.047c6.953-16.675-.49-75.347.46-23.899-2.024 2.004-8.714 34.147-.46 23.9zm-1168-3.222c-3.844-3.585-2.563 3.704 0 0zm133.65.32c-7.915-3.046-4.616 2.737 0 0zm79.354-2.313c-2.555-3.588-2.555 3.587 0 0zm-78-2c-2.555-3.588-2.555 3.587 0 0zm612.53-1.611c39.046-2.843 78.485 1.64 117.92-2.072 32.101.651 66.997-.21 100.64-2.003 13.351.952 87.14-3.714 34.395-6.601-53.52 3.117-106.97-.431-160.48.214-41.7-.802-86.84.104-130.76.946-67.252 6.303 29.085 8.646 38.282 9.516zm382.27.74c24.296 1.966 37.81-12.214 2.872-7.814-28.852-2.14-64.015.14-89.787-2.583 16.11 20.612 62.057 9.093 86.915 10.396zm-1014.8-1.19c-4.386-3.787-2.17 5.075 0 0zm28.755.309c-8.968-6.19-7.137 6.726 0 0zm63.016-.063c-4.768-4.642-3.547 5.199 0 0zm9.698.863c-4.882-4.434-6.855 2.729 0 0zm817.78-.467c-2.415-4.661-3.241 4.369 0 0zm-842.53-.94c-16.097-10.38-56.224-2.42-10.576 1.15l10.576-1.145zm8.281.295c-2.88-1.906-2.334 3.435 0 0zm-53.008-2.75c-7.342-6.75-10.128 5.21 0 0zm530.01-.756c-8.42-7.522-9.51.593-2 .855l2-.855zm-678-.935c-4.238-5.96-.722 5.27 0 0zm153-.531c-7.81-8.574-2.05 5.586 0 0zm-40.5-.969c-3.72-3.755-5.466 3.661 0 0zm91.5-.531c-4.316-7.332-5.007 5.805 0 0zm-70.262-1.16c-2.552-5.17-8.976.937 0 0zm24.247-1.059c-2.293-11.45-7.278 7.468 0 0zm522.02-.282c-11.838-12.478-6.277 7.025 0 0zm-541-.468c-9.887-7.661-1.452 6.29 0 0zm56.869.158c2.671-19.005-48.05.248-4.024-2.887 6.097 2.048-5.65 6.14 4.024 2.887zm-28.869-1.535c-4.289-7.895-11.616 3.869 0 0zm51 .104c-12.225-9.234-37.76 6.911 0 0zm389.57-1.656c11.379-1.901 61.184-1.562 20.328-6.588-5.59-.813-43.06-1.825-20.328 6.588zm-36.505-1.095c54.081-6.719-38.041-13.554-57.337-8.58-38.32 3.047-77.71-1.698-116.15-6.694-27.948.095-68.045-16.886-101.05-16.656-56.069 2.534 35.827 10.214-7.589 14.454-52.457-10.185 9.948 21.104 22.3 6.227-20.069-28.29 51.384.784 68.76 1.205 34.41 7.102 70.888 5.083 103.4 8.93 29.831-2.527 56.773 2.014 87.67 1.114zm111.93.024c-2.48-5.269-2.48 5.27 0 0zm159.3-1.039c18.442-6.43 42.807.276 63.067-2.2 33.099-2.247 105.19 4.002 118.08-5.387-29.751-3.266-55.879-1.478-85.952-1.697-54.549-2.132-109.43 2.886-162.99 1.649-18.23-1.086-79.698 4.096-28.503 6.34 32.145-3.074 66.647-.54 96.298 1.295zm337.62-1.902c-6.43.85-3 8.572 0 0zm-204.42 2.664c-3.031-5.31-3.06 3.315 0 0zm70.498-.865c14.262 3.047 95.19-2.059 51.927-7.34-8.087 1.54-93.786-1.953-51.927 7.34zm-818.61-1.884c-3.204-3.938 1.094 4.958 0 0zm915.44-.3c15.782-16.904-38.632 8.283 0 0zm-991.34-1.067c.055-11.557-9.06 3.925 0 0zm175.04-1.07c-9.706-7.538-14.649 5.053 0 0zm-185.47-1.77c12.893-5.863-14.969-6.991 0 0zm85.624 1.058c-22.394-12.163-66.369-4.827-18.069-.887 6.05.49 11.909 3.176 18.069.887zm436.38-1.326c4.526-8.863-11.905 2.496 0 0zm489.98-1.482c-4.097-5.382-2.344 5.094 0 0zm-1045.4-.612c-4.736-10.058-4.986 3.794 0 0zm223.43.235c-5.94-10.59-4.52 5.26 0 0zm352-1.123c-2.555-3.587-2.555 3.588 0 0zm-123.5-1c-2.466-3.562-1.21 3.656 0 0zm-445.31-.683c-4.383-1.432-.434 1.925 0 0zm111.19-.869c-1.409-3.819-1.842 5.063 0 0zm445.62-.007c-3.106-3.627-1.898 5.035 0 0zm80.337-1.702c33.513-4.74 69.799-.957 101.66-2.939 20.633 4.117 104.63-6.633 45.551-3.981-42.146-3.262-83.864 3.7-125.04-.994-26.16 4.993-100.03-.26-44.543 8.69 7.526-1.952 18.511 5.378 22.372-.776zm-574.63 1.568c-6.591-1.48-1.28 1.658 0 0zm815 .086c30.935-10.422 76.827 2.99 112.47-6.706 16.438-11.921-51.159 4.036-67.954-1.17-34.487-8.333-19.902-2.659-51.635-.916-24.564-4.842-77.642 3.496-22.039 3.842 8.415 1.716 25.734-2.163 29.162 4.95zm-351.12-4.123c-4.889-.023 2.725 5.176 0 0zm53.396.23c-2.595-8.378-2.954 8.494 0 0zm-580 .5c-3.903-3.653-3.903 3.653 0 0zm401.29-1.204c-1.69-11.652-27.996 5.227 0 0zm-309.45-.37c-2.113-8.424-13.184 7.003 0 0zm54.666.391c-15.187-10.472-61.218 1.336-15.031.665l10.273-.238 4.758-.427zm213.3-2.066c-20.631-10.637-41.476 5.4 0 0zm207.19-.464c12.462-2.044-10.241-5.419 0 0zm-514.56.61c-4.193-3.347-1.987 4.868 0 0zm329.36-.499c-8.979-14.27-15.655 7.678 0 0zm-378.8.102c-7.105-5.099-1.914 4.722 0 0zm24 0c-2.91-5.177-2.622 5.216 0 0zm18 .441c-2.88-1.905-2.334 3.435 0 0zm443.5-1.44c-11.907-10.655-14.344 10.517 0 0zm542.5.143c-7.43-4.889-5.764 4.608 0 0zm-976-.644c-2.466-3.563-1.21 3.656 0 0zm47 0c-3.903-3.653-3.903 3.653 0 0zm342.75-.25c-5.218-5.417-4.477 4.726 0 0zm-413.75-.316c-4.039-11.803-5.422 2.218 0 0zm16.602-4.166c-9.445.865-2.327 8.059 0 0zm216.42 3.208c.629-13.84-10.931 5.794 0 0zm47.619.024c-20.844-20.06-52.958-.151-10.682-.575l5.585 1.679 5.097-1.104zm154.55.817c-4.383-1.433-.434 1.925 0 0zm-394.2-2.551c-11.549-12.101-27.006 7.816 0 0zm955.51.235c-2.466-3.562-1.21 3.656 0 0zm-1033.1-2.25c-7.147-7.629 2.913 8.44 0 0zm426.4-.25c-7.338-7.743 1.205 8.431 0 0zm435.18 1c-2.668-8.43-4.395 4.063 0 0zm168-1c27.154-9.634-37.466-.937 0 0zm18.356-1.173c-1.845-11.763-5.677 6.571 0 0zm23.144 1.673c-2.563-3.704-3.844 3.585 0 0zm-581.5-1.5c-2.48-5.269-2.48 5.269 0 0zm14 .441c-2.88-1.906-2.334 3.435 0 0zm28.362-.441c-.865-5.282-2.374 5.247 0 0zm65.305 0c-3.381-5.348-3.381 5.348 0 0zm373.33.5c-3.844-3.585-2.563 3.704 0 0zm49.188.317c-4.383-1.433-.434 1.925 0 0zm-898.98-2.814c3.103-14.518-9.672 7.163 0 0zm241.28.428c-3.188-3.327-.365 4.925 0 0zm362.54.07c-3.379-6.984-2.198 7.05 0 0zm22.384.25c8.287-13.627-9.947 7.855 0 0zm108.62.75c-2.555-3.588-2.555 3.587 0 0zm22.75-.75c-4.022-4.681-4.77 5.252 0 0zm56.25.75c-7.086-3.058 1.787 3.547 0 0zm-658.85-2c-5.452-5.752-53.179-17.93-61.405-7.213 20.567-.634 41.216 8.91 61.405 7.212zm303.62.183c-8.833-13.355-14.854 4.049 0 0zm99.223.257c-4.048-1.915-2.393 3.415 0 0zm386.11-1.446c1.327-30.31-11.572.658 0 0zm-540.36.755c-3.612-3.722-3.076 4.382 0 0zm315.32-1.75c1.656-11.86-5.348 6.752 0 0zm33.677 1.25c-4.477-4.726-5.218 5.417 0 0zm35.25-.737c-9.535-15.048-8.03 9.355 0 0zm-833.44-.045c-10.294-4.519 3.714 5.348 0 0zm142.43-1.494c-8.567-4.608 2.057 6.948 0 0zm182.56.965c-13.939-25.608-23.432 1.74 0 0zm117.44 1.061c-2.555-3.587-2.555 3.588 0 0zm430 0c-3.903-3.653-3.903 3.653 0 0zm46.457-1.069c-3.188-3.327-.365 4.925 0 0zm22.343.87c6.432-11.343-10.471 6.936 0 0zm-459.13-1.3c-2.032-5.23-2.032 5.229 0 0zm180.33.5c-3.903-3.654-3.903 3.652 0 0zm-706.6-2.612c-4.103-4.177-7.543 5.776 0 0zm298.6 1.052c-3.106-3.626-1.898 5.036 0 0zm28.418.952c4.957-11.057-19.255 1.924 0 0zm62.382-.86c-2.518-9.156-12.349 6.393 0 0zm509.2.452c1.063-9.958-11.154 4.354 0 0zm25-.485c-3.832-5.381-3.832 5.381 0 0zm-950-.5c-3.903-3.653-3.903 3.653 0 0zm657-1.69c-4.762-4.06-4.258 6.943 0 0zm68.25 1.273c-2.415-4.66-3.241 4.37 0 0zm282.56-1.833c-.893-17.763-24.579.272-16.302 1.35 3.909-3.02 12.828 3.897 16.302-1.35zm-846.37-.282c61.284-12.462-97.007-3.206-25.397-1.013 8.166-2.449 18.299 3.544 25.397 1.013zm17.559.532c-2.563-3.704-3.844 3.585 0 0zm850 0c-4.912-3.78-7.002 3.704 0 0zm-1012-1c-2.563-3.704-3.844 3.585 0 0zm290-.5c-4.097-5.382-2.344 5.094 0 0zm138.47-.635c-3.427-9.043-3.541 8.27 0 0zm404.53.635c-4.238-5.96-.722 5.27 0 0zm-746.2-1.759c-6.722-20.786-8.283 6.356 0 0zm160.27 1.01c2.126-8.148-21.674-1.28 0 0zm36.985-.25c-4.73-5.72-3.274 5.158 0 0zm669.77-.313c-3.362-4.45-3.634 5.246 0 0zm51.479 1.15c-5.507-1.623-1 1.75 0 0zm-988.25-.755c2.742-6.922-5.414.18 0 0zm33-1.082c-2.48-5.27-2.48 5.269 0 0zm384.25.083c-2.415-4.66-3.241 4.37 0 0zm44.25-.083c-6.658-5.732-7.902 5.657 0 0zm364.5 0c-4.8-8.536-8.259 6.63 0 0zm51 .5c-3.844-3.585-2.563 3.704 0 0zm55-.56c-2.88-1.905-2.334 3.436 0 0zm-926-.44c-2.563-3.704-3.844 3.585 0 0zm465 0c-2.555-3.588-2.555 3.587 0 0zm105.08 0c1.073-9.623-16.801 4.94 0 0zm-422.08-.393c-3.904-3.26-4.008 1.775 0 0zm118.36-1.107c-2.378-5.4-3.505 5.292 0 0zm521.64-.107c-4.008-1.775-3.904 3.26 0 0zm6.3-.075c10.648-6.358-13.43 3.178 0 0zm-762.31-.317c-3.845-3.586-2.563 3.704 0 0zm445.37-.481c5.89-13.935-9.674 3.097 0 0zm21.629.48c-3.904-3.652-3.904 3.654 0 0zm16-.5c-3.833-5.38-3.833 5.382 0 0zm27.333-.823c1.515-10.35-22.49 4.343 0 0zm198.98-.763c-5.772-.84 1.137 6.387 0 0zm-436.58-.977c-11.917-5.728 5.02 8.943 0 0zm24.272 1.564c-2.48-5.27-2.48 5.269 0 0zm30.812-.239c-5.51-7.776-2.053 5.681 0 0zm196.68-.278c-4.034-1.928-2.266 3.474 0 0zm-540.49-.924c-2.116-4.965-3.887 3.619 0 0zm210-.118c-2.88-1.905-2.334 3.435 0 0zm600.73-.334c-4.354-15.553-14.174 6.965 0 0zm50.714-.138c3.161-5.962-9.189 4.418 0 0zm78.559.653c-1.408-19.085-24.748-9.675 0 0zm-1003.5-1.122c-7.385-3.77-3.325 3.937 0 0zm11.5-2.622c-3.689-4.192-3.636 8.677 0 0zm66.784 2.777c.08-11.79-12.237 4.387 0 0zm350.22-.155c-2.555-3.587-2.555 3.588 0 0zm31.5 0c7.088-9.938-14.148.342 0 0zm268.69.317c-4.384-1.432-.434 1.925 0 0zm178.89-2.147c-9.022.927-5.688-2.739 0 0zm-707.1-3.469c-16.698-6.171-6.715 10.794 0 0zm432.7 1.971c-3.365-9.59-3.038 10.533 0 0zm-506.67.77c-3.069-3.546-.59 4.928 0 0zm88.299-.406c-3.582-4.389-2.84 6.625 0 0zm-215.3-.036c-2.467-3.562-1.21 3.657 0 0zm51.75-.25c-3.612-3.721-3.077 4.382 0 0zm7.611-.25c-.865-5.282-2.373 5.247 0 0zm419.63-.082c-3.494-4.45-3.546 5.34 0 0zm409.48-2.265c-3.536-1.145-3.128 10.007 0 0zm-625.48 1.849c-2.555-3.588-2.555 3.587 0 0zm26.995-.25c-7.877-17.057-8.779 3.86 0 0zm-136.87-.75c.22-13.8-7.605 2.349 0 0zm68.875-.06c-2.88-1.905-2.333 3.436 0 0zm798.5.06c-2.466-3.562-1.21 3.656 0 0zm-986.5-1c-2.555-3.588-2.555 3.587 0 0zm74.188.317c-4.383-1.433-.433 1.925 0 0zm160.81-.258c-2.115-4.965-3.887 3.618 0 0zm103.5-.051c.18-10.364-7.04 4.46 0 0zm383.87-.508c-2.373-5.247-.865 5.282 0 0zm-599.04-2.339c-6.388.624 3.235 3.08 0 0zm185.68 1.994c-9.152-13.102-3.51 3.762 0 0zm12-.533c-3.22-10.96-9.322 6.912 0 0zm-230-1.123c-2.479-5.269-2.479 5.27 0 0zm12.435.605c-4.483-7.456-11.82 4.322 0 0zm51.752.212c-4.383-1.432-.433 1.925 0 0zm582.31-2.15c-2.865-5.05-2.937 5.515 0 0zm-454.73-.354c-3.634-5.246-3.362 4.45 0 0zm77.23.187c-2.467-3.562-1.21 3.657 0 0zm197-.565c-3.394-16.36-8.39 7.685 0 0zm313-.435c-2.665-6.688-2.639 6.923 0 0zm-469-.059c-2.88-1.905-2.334 3.435 0 0zm57-.382c-1.778-6.787-3.092 5.406 0 0zm-459.5-.559c-3.845-3.585-2.564 3.704 0 0zm274.69.317c-4.384-1.432-.434 1.925 0 0zm558.58-1.13c-3.363-4.449-3.634 5.247 0 0zm-642.13-.687c11.815-12.93-17.196 2.395 0 0zm-172.02-.69c-3.047-14.402-10.94 3.177 0 0zm578.88.19c-3.845-3.585-2.564 3.704 0 0zm-592.5-1c-3.904-3.653-3.904 3.653 0 0zm19 0c-3.904-3.653-3.904 3.653 0 0zm187-1.333c-1.89-6.966-3.413 4.56 0 0zm71.2-1.867c-4.62-1.91 1.952 7.61 0 0zm738.34 2.134c1.012-4.96-6.86 4.672 0 0zm-953.04-.935c-2.564-3.704-3.845 3.585 0 0zm412.1-1.73c-2.254.935 2.1 3.96 0 0zm463 0c-4.89-.023 2.724 5.176 0 0zm-762.6-.328c-4.709-7.983-6.069 6.6 0 0zm281 1.058c-2.556-3.588-2.556 3.587 0 0zm322.77-.824c-5.663-3.757-6.948 4.641 0 0zm181.64 1.217c4.551-8.347-11.083 1.055 0 0zm-800.61-3.04c-10.97-9.133-7.234 5.604 0 0zm9.195 1.647c-3.904-3.653-3.904 3.653 0 0zm66.768-1c16.323-11.578-10.801 4.859 0 0zm38.232.5c-2.48-5.27-2.48 5.269 0 0zm260.6-1.23c-4.89-.023 2.725 5.176 0 0zm-514.6.23c-7.958-7.678-2.479 6.862 0 0zm5.313-1.587c-5.756-.986 1.142 6.39 0 0zm31.687 1.087c-2.555-3.588-2.555 3.587 0 0zm426-.941c-1.898-5.036-3.107 3.626 0 0zm414-2.06c-2.555-3.587-2.555 3.588 0 0zm-874.5-3c-3.118-6.167-3.118 6.169 0 0zm89.494-1.003c-5.298-10.3.56 7.644 0 0zm-113.99.42c-3.376-4.458-3.548 5.326 0 0zm19.57.155c5.51-8.495-9.455 5.62 0 0zm48.344-1.153c-4.11-4.425-8.492 4.822 0 0zm-77.553-1.918c-.629-5.51-3.485 5.423 0 0zm973.83-1.183c-4.384-1.433-.434 1.925 0 0zm-712.74-6.746c-4.207 3.649-1.136-1.5 0 0zm-111.46-.88c-4.709-.743-.037 7.075 0 0zm30.015 2.226c-4.882-8.587-8.661 1.26 0 0zm-141.01-4.977c-2.88-1.906-2.334 3.434 0 0zm182.39-.523c2.196-12.77-10.795 6.22 0 0zm-126.39-1.977c-3.855-5.508-3.23 5.938 0 0zm21.604-.17c-2.254.934 2.101 3.959 0 0zm114.4-1.807c-5.978-6.723-3.273 10.492 0 0zm-128.57.422c-3.49-4.26-4.272 6.397 0 0zm-46.633-1.052c7.9-9.944-22.106.238 0 0zm115.7-.834c-3.945-6.285 1.649 8.636 0 0zm-96.686-1.275c-2.61-4.44-5.782 6.735 0 0zm-9.156-1.24c-1.812-13.977-8.876 5.426 0 0zm-41.78-1.389c1.373-8.63-8.093 3.037 0 0zm97.121-.67c-4.474-4.732-5.17 5.465 0 0zm90.884-2.676c-5.97 4.93-2.055 1.41 0 0zm-61.456 1.5c-2.643-5.103-4.86 3.75 0 0zm-147.42-2.25c-3.903-3.654-3.903 3.653 0 0zm3.51-9.368c.39-14.336-17.792 9.364 0 0zm6.92-5.746c-8.106-4.013-3.452 5.544 0 0zm-125.18-.4c-4.005-3.651-3.816 4.555 0 0zm113.57-2.82c-2.765-6.296-5.326 6.819 0 0zm-16.288-.282c6.971-11.872-11.783 3.96 0 0zm-70.764-2.946c-4.339 3.333-2.482 5.87 0 0zm30.011-.284c-4.114-4.018-5.043 5.531 0 0zm61.718-1.154c-2.466-3.563-1.21 3.656 0 0zm-93.522-1.958c-.924-10.615-8.9 6.338 0 0zm83.022.398c-2.88-1.905-2.334 3.435 0 0zm17 .56c-2.563-3.704-3.844 3.585 0 0zm-51.292-5.623c-4.508-6.384-5.307 4.967 0 0zm-42.208-6.377c-2.482-3.68-3.938 3.514 0 0zm95.5.19c-3.11-10.58-5.896 4.458 0 0zm-18-2.25c-2.88-1.905-2.334 3.435 0 0z"/></svg>