<?xml version="1.0" encoding="UTF-8"?>
<svg width="59.28mm" height="59.389mm" version="1.1" viewBox="0 0 59.28 59.389" xmlns="http://www.w3.org/2000/svg">
<g transform="translate(-69.412 -123.72)">
<path d="m95.388 182.93c-4.2744-0.5433-9.0958-2.3082-12.66-4.634-2.3784-1.5522-6.9003-5.9994-8.3442-8.2061-3.5174-5.3759-4.9991-10.384-4.9714-16.801 0.03507-8.1277 2.6047-14.55 8.1284-20.314 2.5698-2.6817 4.9186-4.4502 8.0002-6.0235 11.337-5.7883 24.982-3.6842 34.187 5.272 7.655 7.4482 10.704 18.428 7.9896 28.772-2.4742 9.4283-10.019 17.491-19.265 20.587-3.8032 1.2735-9.2371 1.834-13.065 1.3475zm10.963-3.0394c5.0356-1.4636 8.8884-3.8113 12.517-7.6271 5.0589-5.3201 7.5352-11.512 7.5352-18.842 0-5.2282-1.2381-9.7592-3.8839-14.213-1.7812-2.9986-6.3207-7.541-9.3002-9.306-4.4367-2.6283-8.9904-3.881-14.122-3.8846-3.5226-3e-3 -5.4334 0.27959-8.5524 1.2626-6.9526 2.1912-13.367 7.8472-16.438 14.494-3.4103 7.3811-3.4056 15.924 0.01288 23.323 2.5193 5.4527 7.6686 10.609 13.188 13.205 5.7276 2.6945 13.118 3.311 19.043 1.5887zm-11.981-2.9112c-7.3154-1.5699-13.275-6.0763-16.635-12.578-4.3951-8.5048-3.3778-18.502 2.6554-26.094 3.5036-4.4089 9.1307-7.6518 14.89-8.5808 2.9657-0.47841 7.4105-0.19587 10.281 0.65354 8.1036 2.3976 13.985 8.2694 16.507 16.48 0.64995 2.1162 0.71483 2.7116 0.71483 6.5608s-0.0649 4.4446-0.71483 6.5608c-2.5244 8.2191-8.369 14.057-16.507 16.487-2.8823 0.86069-8.3892 1.1121-11.191 0.51083zm8.343-2.136c8.949-1.5606 16.002-8.5537 17.698-17.549 0.52375-2.7769 0.52647-4.6327 0.0111-7.588-1.5742-9.0274-8.6717-16.132-17.686-17.704-2.9409-0.51285-4.5152-0.51546-7.4005-0.0123-11.852 2.0669-19.964 13.534-17.779 25.135 1.685 8.9466 8.2768 15.744 17.078 17.61 2.8161 0.59714 5.0998 0.62776 8.0784 0.10834zm-6.0613-3.3426c-4.0279-0.49893-7.4146-2.1905-10.506-5.2475-3.628-3.5873-5.298-7.6224-5.3109-12.832-0.013-5.2384 1.6606-9.2282 5.4398-12.968 3.6512-3.6136 7.6579-5.2358 12.853-5.2037 5.1646 0.0319 9.154 1.7233 12.846 5.4462 3.5271 3.5568 5.2023 7.7088 5.1949 12.875-6e-3 3.8571-0.99416 7.0424-3.1706 10.216-3.8455 5.6068-10.493 8.5635-17.345 7.7148zm6.0632-2.4734c5.8007-1.4745 10.417-6.091 11.892-11.892 1.7835-7.0162-1.974-14.917-8.595-18.073-2.6517-1.2639-4.3168-1.6502-7.0906-1.6449-4.3827 8e-3 -7.9342 1.5144-11.194 4.747-3.1685 3.1417-4.7338 6.8638-4.7338 11.256 0 2.6994 0.39589 4.3829 1.6488 7.0115 1.9553 4.1022 6.1901 7.5496 10.579 8.6124 1.9406 0.46989 5.6103 0.46137 7.4938-0.0174zm-6.6687-3.4151c-4.5482-1.103-8.3712-5.0501-9.3222-9.6246-1.4149-6.8057 3.1067-13.553 9.9743-14.885 5.8957-1.1432 12.013 2.3822 14.132 8.1439 0.82598 2.246 0.80557 6.2268-0.0431 8.4079-0.76291 1.9607-2.3229 4.2176-3.7068 5.3627-3.0127 2.4928-7.2994 3.501-11.034 2.5952zm6.3333-2.4228c2.5473-0.88885 5.1232-3.3117 6.1606-5.7945 1.5952-3.8178 0.69389-8.2671-2.2764-11.237-5.9539-5.9539-15.924-2.7286-17.469 5.651-0.95695 5.1924 2.8735 10.677 8.2327 11.788 1.4445 0.29943 3.8523 0.11641 5.3517-0.40677zm-5.7915-4.7155c-3.5802-1.667-4.3681-6.2209-1.5619-9.0271s7.3601-2.0183 9.0271 1.5619c1.0823 2.3244 0.69593 4.6115-1.0789 6.3863s-4.0619 2.1612-6.3863 1.0789zm4.3268-2.1722c0.94381-0.59757 1.4809-1.6424 1.4809-2.8808 0-2.0245-1.3835-3.3955-3.4265-3.3955-1.4187 0-2.4154 0.6474-3.0926 2.0088-1.5053 3.0258 2.1325 6.1072 5.0382 4.2675z" stroke-width=".26458"/>
</g>
</svg>
